<svg xmlns="http://www.w3.org/2000/svg" width="588.193" height="588.193"><path d="M571.303 238.328h-29.247c-22.915 0-28.712-21.279-28.712-21.279s-.146.032-.2.059c-3.407-9.817-7.286-19.426-11.93-28.621 0-.027 0-.027-.027-.054-7.731-17.018 6.761-31.505 7.56-32.287l18.663-18.689c6.578-6.569 6.578-17.259 0-23.846l-55.016-55.015c-6.605-6.587-17.272-6.578-23.851.009l-13.52 13.52c-21.152 21.288-40.995 10.999-40.995 10.999l-.055.054c-7.596-3.639-15.383-6.932-23.388-9.79-.381-.159-.636-.322-1.018-.49-17.689-7.242-20.016-25.382-20.261-32.723V20.562c0-9.313-7.551-16.868-16.854-16.868h-80.965c-9.313 0-16.872 7.555-16.872 16.868v24.405c0 24.405-20.652 28.116-20.652 28.116l.123.118c-8.932 3.185-17.686 6.737-26.126 10.917-.15.064-.231.037-.381.1-16.841 7.455-26.154.141-28.535-2.149l-.559-.577c0-.009-.082-.1-.082-.1h-.027l-22.806-22.86c-6.615-6.587-17.277-6.587-23.864-.018l-55.069 54.983c-6.587 6.587-6.605 17.268 0 23.855l18.271 18.312s15.846 15.287 7.991 32.441v.027c-4.557 8.931-8.373 18.294-11.748 27.848-.236.513-.477.886-.709 1.449-6.987 17.14-20.011 20.397-26.971 20.897H16.873C7.56 238.328 0 245.882 0 255.187v77.816c0 9.321 7.56 16.863 16.873 16.863h30.265c17.127 0 21.656 15.81 21.656 15.81s.123-.291.177-.437c3.53 10.903 7.528 21.588 12.489 31.728l-.086.037s10.694 18.153-1.291 30.138v.045l-23.542 23.496c-6.587 6.588-6.587 17.3 0 23.86l55.006 55.042c6.605 6.578 17.277 6.578 23.855 0l21.156-21.161.055-.063.94-.909c2.903-2.762 13.111-10.275 32.759-2.171.205.091.327.118.532.182 7.491 3.553 15.224 6.787 23.119 9.576l-.082.091s20.716 6.17 20.716 26.977v25.531c0 9.322 7.56 16.863 16.873 16.863h80.964c9.313 0 16.854-7.56 16.854-16.863v-27.984c.382-6.16 3.125-17.809 17.645-23.496.555-.236.909-.455 1.363-.646 5.605-1.944 10.976-4.325 16.427-6.642 13.065-7.287.937-22.097.937-22.097l-4.262-5.062c-11.448-13.629-29.856-5.17-29.856-5.17l-.027-.127c-1.59.527-3.116 1.145-4.733 1.653-.509.183-.836.382-1.408.609-25.122 9.259-25.358 28.356-25.358 28.356v22.425c-.354 19.08-15.556 22.424-23.433 22.923h-9.095c-19.58.382-23.069-11.584-23.569-17.953v-25.795c0-23.724-26.476-30.274-26.476-30.274l.091-.118c-14.347-4.233-27.912-10.258-40.641-17.518-.527-.236-.968-.354-1.536-.645-21.452-10.758-37.411 4.415-37.411 4.415L139.729 482.7c-12.725 12.666-22.124 6.77-25.595 3.626l-1.468-1.473-.054-.081-14.964-14.965-.055-.055c-11.721-11.693 3.525-27.775 5.556-29.802l17.749-17.744c.027 0 .027-.055.027-.055 13.697-13.711 2.944-35.017 2.944-35.017s.146-.027.172-.027c-6.846-12.43-12.484-25.568-16.513-39.47-.118-.381-.268-.608-.409-.99-9.022-24.913-31.764-24.514-32.209-24.514l-17.277.055c-20.188.036-23.837-13.102-24.396-19.998l-.027-13.938c.109-5.733 2.204-21.988 22.628-22.16h.027l22.124-.086s20.83.968 28.239-21.252c.118-.295.259-.436.35-.704 4.438-16.368 10.849-31.914 19.158-46.215v-.009c10.553-21.256-4.521-37.175-6.492-39.11l-15.046-15.046-.027-.027c-14.515-14.524-4.588-27.103-1.118-30.697l7.855-7.832s16.541-17.508 34.058 0c.032 0 .032.009.032.018l17.1 17.1c3.225 3.071 16.391 13.761 35.262 4.588.091-.027.118-.009.177-.054 12.139-6.878 25.213-12.284 38.815-16.414.354-.168.563-.345.963-.504 21.897-8.613 25.977-22.124 26.594-29.093V55.22c.109-4.279 1.754-21.093 21.388-21.093h12.284s22.379-.763 22.379 24.191v19.285c.127 5.497 2.044 23.81 23.169 31.251.018.009.018.027.091.037 12.774 3.548 24.977 8.486 36.553 14.46l.118-.1s26.357 16.354 46.265-3.53l13.312-13.302c.608-.613 18.635-18.049 32.082-4.588.036.019.063.027.063.055l11.021 11.017s13.383 16.282-3.453 33.123l-14.91 14.924s-15.546 15.909-4.261 40.055c.2.409.2.677.382 1.067 6.868 12.534 12.302 25.967 16.309 40 .027-.009.173-.131.173-.131s4.834 24.218 26.422 24.146l20.952-.077h1.507c.618-.027 25.604-.427 25.659 23.16l.063 9.926v2.472c-.209 5.851-2.999 20.452-26.213 20.543l-20.099.063c-15.69.146-23.514 13.012-26.939 21.18-1.335 3.589-4.389 15.191 6.696 26.104l2.854 2.816c.055.036.1.063.154.128 16.545 17.744 28.394-7.124 28.394-7.124 7.486-12.483 18.48-14.982 24.359-15.392h30.646c9.312 0 16.863-7.56 16.863-16.863v-77.816c-.017-9.333-7.577-16.879-16.889-16.879z"/></svg>